<?xml version="1.0" encoding="utf-8"?>
<!-- Generator: Adobe Illustrator 24.3.0, SVG Export Plug-In . SVG Version: 6.00 Build 0)  -->
<svg version="1.1" id="Logo_00000158727625646119494500000015711314265259652764_"
	 xmlns="http://www.w3.org/2000/svg" xmlns:xlink="http://www.w3.org/1999/xlink" x="0px" y="0px" viewBox="0 0 700 700"
	 style="enable-background:new 0 0 700 700;" xml:space="preserve">
<style type="text/css">
	.st0{fill:none;stroke:#FFFFFF;stroke-width:40;stroke-miterlimit:10;}
</style>
<g id="Logo">
	<path id="Initiator" class="st0" d="M674.16,347.44c0-179.38-145.34-324.72-324.72-324.72S24.72,168.06,24.72,347.44
		c0,152.23,104.82,280.04,246.27,315.11V446.67h-67.02v-99.23h67.02v-42.73c0-110.53,50.01-161.71,158.46-161.71
		c20.52,0,56.11,4.03,70.66,8.05v89.88c-7.66-0.78-20.91-1.17-37.54-1.17c-53.25,0-73.78,20.13-73.78,72.61v35.07h106.12
		l-18.18,99.23h-87.8v223.15C549.6,650.34,674.16,513.44,674.16,347.44z"/>
	<path id="F" class="st0" d="M476.6,446.67l18.18-99.23H388.67v-35.07c0-52.47,20.52-72.61,73.78-72.61
		c16.5,0,29.87,0.39,37.54,1.17v-89.88c-14.55-4.03-50.01-8.05-70.66-8.05c-108.46,0-158.59,51.18-158.59,161.71v42.73h-67.02v99.23
		h67.02v215.87c25.07,6.23,51.44,9.61,78.45,9.61c13.25,0,26.5-0.78,39.36-2.34V446.67H476.6z"/>
</g>
</svg>
